<svg version="1.1" xmlns="http://www.w3.org/2000/svg" xmlns:xlink="http://www.w3.org/1999/xlink" width="825.5" height="378.3182"><style xmlns="http://www.w3.org/1999/xhtml"></style><defs/><g transform="translate(0,0)"><g><rect fill="#FFFFFF" stroke="none" x="0" y="0" width="825.5" height="378.3182"/></g><g transform="translate(0,0) matrix(1,0,0,1,75.5,121.5)"><g><g transform="translate(0,0) scale(2.4,1.7)"><g><path fill="#FFFFFF" stroke="none" stroke-dasharray="1.7976931348623157e+308" d="M 0 0 L 100 0 Q 100 0 100 0 L 100 100 Q 100 100 100 100 L 0 100 Q 0 100 0 100 L 0 0 Q 0 0 0 0 Z"/><g transform="scale(0.4166666666666667,0.5882352941176471)"><path fill="none" stroke="none" stroke-dasharray="1.7976931348623157e+308" d="M 0 0 L 240 0 Q 240 0 240 0 L 240 170 Q 240 170 240 170 L 0 170 Q 0 170 0 170 L 0 0 Q 0 0 0 0 Z"/><path fill="none" stroke="#333333" stroke-dasharray="1.7976931348623157e+308" d="M 0 0 L 240 0 Q 240 0 240 0 L 240 170 Q 240 170 240 170 L 0 170 Q 0 170 0 170 L 0 0 Q 0 0 0 0 Z" stroke-miterlimit="10" stroke-width="2"/></g></g></g></g></g><g transform="translate(0,0) matrix(1,0,0,1,85.5,131.5)"><g><g transform="translate(0,0) scale(2.4,1.7)"><g><path fill="#FFFFFF" stroke="none" stroke-dasharray="1.7976931348623157e+308" d="M 0 0 L 100 0 Q 100 0 100 0 L 100 100 Q 100 100 100 100 L 0 100 Q 0 100 0 100 L 0 0 Q 0 0 0 0 Z"/><g transform="scale(0.4166666666666667,0.5882352941176471)"><path fill="none" stroke="none" stroke-dasharray="1.7976931348623157e+308" d="M 0 0 L 240 0 Q 240 0 240 0 L 240 170 Q 240 170 240 170 L 0 170 Q 0 170 0 170 L 0 0 Q 0 0 0 0 Z"/><path fill="none" stroke="#333333" stroke-dasharray="1.7976931348623157e+308" d="M 0 0 L 240 0 Q 240 0 240 0 L 240 170 Q 240 170 240 170 L 0 170 Q 0 170 0 170 L 0 0 Q 0 0 0 0 Z" stroke-miterlimit="10" stroke-width="2"/></g></g></g></g></g><g transform="matrix(1,0,0,1,597,81)"><g><g><rect fill="rgb(0,0,0)" stroke="none" x="0" y="0" width="194" height="41" fill-opacity="0"/></g></g><g><g><rect fill="rgb(0,0,0)" stroke="none" x="0" y="0" width="194" height="41" fill-opacity="0"/></g></g><g><g><rect fill="rgb(0,0,0)" stroke="none" x="25.596590042114258" y="0" width="143" height="40" fill-opacity="0"/></g></g><g><g><rect fill="rgb(0,0,0)" stroke="none" x="25.596590042114258" y="0" width="143" height="40" fill-opacity="0"/></g><text fill="rgb(0, 0, 0)" stroke="none" font-family="Arial" font-size="36px" font-style="normal" font-weight="normal" text-decoration="" line-height="41px" x="25.454544067382812" y="34">Your</text><text fill="rgb(0, 0, 0)" stroke="none" font-family="Arial" font-size="36px" font-style="normal" font-weight="normal" text-decoration="" line-height="41px" x="108.18181610107422" y="34">app</text></g></g><g transform="translate(0,0) matrix(1,0,0,1,95.5,141.5)"><g><g transform="translate(0,0) scale(2.4,1.7)"><g><path fill="#FFFFFF" stroke="none" stroke-dasharray="1.7976931348623157e+308" d="M 0 0 L 100 0 Q 100 0 100 0 L 100 100 Q 100 100 100 100 L 0 100 Q 0 100 0 100 L 0 0 Q 0 0 0 0 Z"/><g transform="scale(0.4166666666666667,0.5882352941176471)"><path fill="none" stroke="none" stroke-dasharray="1.7976931348623157e+308" d="M 0 0 L 240 0 Q 240 0 240 0 L 240 170 Q 240 170 240 170 L 0 170 Q 0 170 0 170 L 0 0 Q 0 0 0 0 Z"/><path fill="none" stroke="#333333" stroke-dasharray="1.7976931348623157e+308" d="M 0 0 L 240 0 Q 240 0 240 0 L 240 170 Q 240 170 240 170 L 0 170 Q 0 170 0 170 L 0 0 Q 0 0 0 0 Z" stroke-miterlimit="10" stroke-width="2"/></g></g></g></g></g><g transform="translate(0,0) matrix(1,0,0,1,105.5,151.5)"><g><g transform="translate(0,0) scale(2.4,1.7)"><g><path fill="#FFFFFF" stroke="none" stroke-dasharray="1.7976931348623157e+308" d="M 0 0 L 100 0 Q 100 0 100 0 L 100 100 Q 100 100 100 100 L 0 100 Q 0 100 0 100 L 0 0 Q 0 0 0 0 Z"/><g transform="scale(0.4166666666666667,0.5882352941176471)"><path fill="none" stroke="none" stroke-dasharray="1.7976931348623157e+308" d="M 0 0 L 240 0 Q 240 0 240 0 L 240 170 Q 240 170 240 170 L 0 170 Q 0 170 0 170 L 0 0 Q 0 0 0 0 Z"/><path fill="none" stroke="#333333" stroke-dasharray="1.7976931348623157e+308" d="M 0 0 L 240 0 Q 240 0 240 0 L 240 170 Q 240 170 240 170 L 0 170 Q 0 170 0 170 L 0 0 Q 0 0 0 0 Z" stroke-miterlimit="10" stroke-width="2"/></g></g></g></g></g><g transform="translate(0,0) matrix(1,0,0,1,125.5,169)"><g><g transform="translate(0,0) scale(1,0.75)"><g><path fill="#FFFFFF" stroke="none" stroke-dasharray="1.7976931348623157e+308" d="M 100 50 A 50 50 0 1 0 99.99997500000208 50.04999999166668 Z"/><g transform="scale(1,1.3333333333333333)"><path fill="none" stroke="#333333" stroke-dasharray="1.7976931348623157e+308" d="M 50 0 C 77.614235 0 100 16.78932375 100 37.5 C 100 58.21067625 77.614235 75 50 75 C 22.385765000000003 75 0 58.21067625 0 37.5 C 0 16.78932375 22.385765000000003 0 50 0 Z" stroke-miterlimit="10" stroke-width="2"/></g></g></g></g></g><g transform="matrix(1,0,0,1,136,186)"><g><g><rect fill="rgb(0,0,0)" stroke="none" x="0" y="0" width="81" height="41" fill-opacity="0"/></g></g><g><g><rect fill="rgb(0,0,0)" stroke="none" x="0" y="0" width="81" height="41" fill-opacity="0"/></g></g><g><g><rect fill="rgb(0,0,0)" stroke="none" x="3.139204502105713" y="0" width="75" height="41" fill-opacity="0"/></g><text fill="rgb(0, 0, 0)" stroke="none" font-family="Arial" font-size="12px" font-style="normal" font-weight="normal" text-decoration="" line-height="14px" x="16.15056800842285" y="12">Template</text><text fill="rgb(0, 0, 0)" stroke="none" font-family="Arial" font-size="12px" font-style="normal" font-weight="normal" text-decoration="" line-height="14px" x="2.7272725105285645" y="25.63636302947998">Based</text><text fill="rgb(0, 0, 0)" stroke="none" font-family="Arial" font-size="12px" font-style="normal" font-weight="normal" text-decoration="" line-height="14px" x="40.909088134765625" y="25.63636302947998">French</text><text fill="rgb(0, 0, 0)" stroke="none" font-family="Arial" font-size="12px" font-style="normal" font-weight="normal" text-decoration="" line-height="14px" x="8.039772033691406" y="39.27272605895996">Translations</text></g></g><g transform="translate(0,0) matrix(1,0,0,1,235.5,236.5)"><g><g transform="translate(0,0) scale(1,0.75)"><g><path fill="#FFFFFF" stroke="none" stroke-dasharray="1.7976931348623157e+308" d="M 100 50 A 50 50 0 1 0 99.99997500000208 50.04999999166668 Z"/><g transform="scale(1,1.3333333333333333)"><path fill="none" stroke="#333333" stroke-dasharray="1.7976931348623157e+308" d="M 50 0 C 77.614235 0 100 16.78932375 100 37.5 C 100 58.21067625 77.614235 75 50 75 C 22.385765000000003 75 0 58.21067625 0 37.5 C 0 16.78932375 22.385765000000003 0 50 0 Z" stroke-miterlimit="10" stroke-width="2"/></g></g></g></g></g><g transform="matrix(1,0,0,1,246,254)"><g><g><rect fill="rgb(0,0,0)" stroke="none" x="0" y="0" width="81" height="41" fill-opacity="0"/></g></g><g><g><rect fill="rgb(0,0,0)" stroke="none" x="0" y="0" width="81" height="41" fill-opacity="0"/></g></g><g><g><rect fill="rgb(0,0,0)" stroke="none" x="3.139204502105713" y="0" width="75" height="41" fill-opacity="0"/></g></g><g><g><rect fill="rgb(0,0,0)" stroke="none" x="3.139204502105713" y="0" width="75" height="41" fill-opacity="0"/></g><text fill="rgb(0, 0, 0)" stroke="none" font-family="Arial" font-size="12px" font-style="normal" font-weight="normal" text-decoration="" line-height="14px" x="14.488636016845703" y="12">Controller</text><text fill="rgb(0, 0, 0)" stroke="none" font-family="Arial" font-size="12px" font-style="normal" font-weight="normal" text-decoration="" line-height="14px" x="2.7272725105285645" y="25.63636302947998">Based</text><text fill="rgb(0, 0, 0)" stroke="none" font-family="Arial" font-size="12px" font-style="normal" font-weight="normal" text-decoration="" line-height="14px" x="40.909088134765625" y="25.63636302947998">French</text><text fill="rgb(0, 0, 0)" stroke="none" font-family="Arial" font-size="12px" font-style="normal" font-weight="normal" text-decoration="" line-height="14px" x="11.036931037902832" y="39.27272605895996">Translation</text></g></g><g transform="matrix(1,0,0,1,158,334)"><g><g><rect fill="rgb(0,0,0)" stroke="none" x="0" y="0" width="147" height="14" fill-opacity="0"/></g></g><g><g><rect fill="rgb(0,0,0)" stroke="none" x="0" y="0" width="147" height="14" fill-opacity="0"/></g></g><g><g><rect fill="rgb(0,0,0)" stroke="none" x="33.4801139831543" y="0" width="80" height="14" fill-opacity="0"/></g><text fill="rgb(0, 0, 0)" stroke="none" font-family="Arial" font-size="12px" font-style="normal" font-weight="normal" text-decoration="" line-height="14px" x="33.6363639831543" y="12">messages</text><text fill="rgb(0, 0, 0)" stroke="none" font-family="Arial" font-size="12px" font-style="normal" font-weight="normal" text-decoration="" line-height="14px" x="88.18181610107422" y="12">.</text><text fill="rgb(0, 0, 0)" stroke="none" font-family="Arial" font-size="12px" font-style="normal" font-weight="normal" text-decoration="" line-height="14px" x="91.81817626953125" y="12">fr</text><text fill="rgb(0, 0, 0)" stroke="none" font-family="Arial" font-size="12px" font-style="normal" font-weight="normal" text-decoration="" line-height="14px" x="98.18181610107422" y="12">.</text><text fill="rgb(0, 0, 0)" stroke="none" font-family="Arial" font-size="12px" font-style="normal" font-weight="normal" text-decoration="" line-height="14px" x="101.81817626953125" y="12">xlf</text></g></g><g transform="matrix(1,0,0,1,83,48)"><g><g><rect fill="rgb(0,0,0)" stroke="none" x="0" y="0" width="226" height="54" fill-opacity="0"/></g></g><g><g><rect fill="rgb(0,0,0)" stroke="none" x="0" y="0" width="226" height="53" fill-opacity="0"/></g></g><g><g><rect fill="rgb(0,0,0)" stroke="none" x="34.9573860168457" y="-0.9090908765792847" width="156" height="54" fill-opacity="0"/></g></g><g><g><rect fill="rgb(0,0,0)" stroke="none" x="34.9573860168457" y="-0.9090908765792847" width="156" height="54" fill-opacity="0"/></g><text fill="rgb(0, 0, 0)" stroke="none" font-family="Arial" font-size="24px" font-style="normal" font-weight="normal" text-decoration="" line-height="27px" x="34.54545211791992" y="21.090909123420715">Nova</text><text fill="rgb(0, 0, 0)" stroke="none" font-family="Arial" font-size="24px" font-style="normal" font-weight="normal" text-decoration="" line-height="27px" x="97.27272033691406" y="21.090909123420715">Package</text><text fill="rgb(0, 0, 0)" stroke="none" font-family="Arial" font-size="24px" font-style="normal" font-weight="normal" text-decoration="" line-height="27px" x="50" y="47.45454406738281"> ./</text><text fill="rgb(0, 0, 0)" stroke="none" font-family="Arial" font-size="24px" font-style="normal" font-weight="normal" text-decoration="" line-height="27px" x="62.727272033691406" y="47.45454406738281">sdk</text><text fill="rgb(0, 0, 0)" stroke="none" font-family="Arial" font-size="24px" font-style="normal" font-weight="normal" text-decoration="" line-height="27px" x="100" y="47.45454406738281">/</text><text fill="rgb(0, 0, 0)" stroke="none" font-family="Arial" font-size="24px" font-style="normal" font-weight="normal" text-decoration="" line-height="27px" x="107.27272033691406" y="47.45454406738281">locale</text><text fill="rgb(0, 0, 0)" stroke="none" font-family="Arial" font-size="24px" font-style="normal" font-weight="normal" text-decoration="" line-height="27px" x="170" y="47.45454406738281">/</text></g></g><g transform="translate(0,0) matrix(1,0,0,1,535.5,132)"><g><g transform="translate(0,0) scale(2.4,1.7)"><g><path fill="#FFFFFF" stroke="none" stroke-dasharray="1.7976931348623157e+308" d="M 0 0 L 100 0 Q 100 0 100 0 L 100 100 Q 100 100 100 100 L 0 100 Q 0 100 0 100 L 0 0 Q 0 0 0 0 Z"/><g transform="scale(0.4166666666666667,0.5882352941176471)"><path fill="none" stroke="none" stroke-dasharray="1.7976931348623157e+308" d="M 0 0 L 240 0 Q 240 0 240 0 L 240 170 Q 240 170 240 170 L 0 170 Q 0 170 0 170 L 0 0 Q 0 0 0 0 Z"/><path fill="none" stroke="#333333" stroke-dasharray="1.7976931348623157e+308" d="M 0 0 L 240 0 Q 240 0 240 0 L 240 170 Q 240 170 240 170 L 0 170 Q 0 170 0 170 L 0 0 Q 0 0 0 0 Z" stroke-miterlimit="10" stroke-width="2"/></g></g></g></g></g><g transform="translate(0,0) matrix(1,0,0,1,545.5,142)"><g><g transform="translate(0,0) scale(2.4,1.7)"><g><path fill="#FFFFFF" stroke="none" stroke-dasharray="1.7976931348623157e+308" d="M 0 0 L 100 0 Q 100 0 100 0 L 100 100 Q 100 100 100 100 L 0 100 Q 0 100 0 100 L 0 0 Q 0 0 0 0 Z"/><g transform="scale(0.4166666666666667,0.5882352941176471)"><path fill="none" stroke="none" stroke-dasharray="1.7976931348623157e+308" d="M 0 0 L 240 0 Q 240 0 240 0 L 240 170 Q 240 170 240 170 L 0 170 Q 0 170 0 170 L 0 0 Q 0 0 0 0 Z"/><path fill="none" stroke="#333333" stroke-dasharray="1.7976931348623157e+308" d="M 0 0 L 240 0 Q 240 0 240 0 L 240 170 Q 240 170 240 170 L 0 170 Q 0 170 0 170 L 0 0 Q 0 0 0 0 Z" stroke-miterlimit="10" stroke-width="2"/></g></g></g></g></g><g transform="translate(0,0) matrix(1,0,0,1,555.5,152)"><g><g transform="translate(0,0) scale(2.4,1.7)"><g><path fill="#FFFFFF" stroke="none" stroke-dasharray="1.7976931348623157e+308" d="M 0 0 L 100 0 Q 100 0 100 0 L 100 100 Q 100 100 100 100 L 0 100 Q 0 100 0 100 L 0 0 Q 0 0 0 0 Z"/><g transform="scale(0.4166666666666667,0.5882352941176471)"><path fill="none" stroke="none" stroke-dasharray="1.7976931348623157e+308" d="M 0 0 L 240 0 Q 240 0 240 0 L 240 170 Q 240 170 240 170 L 0 170 Q 0 170 0 170 L 0 0 Q 0 0 0 0 Z"/><path fill="none" stroke="#333333" stroke-dasharray="1.7976931348623157e+308" d="M 0 0 L 240 0 Q 240 0 240 0 L 240 170 Q 240 170 240 170 L 0 170 Q 0 170 0 170 L 0 0 Q 0 0 0 0 Z" stroke-miterlimit="10" stroke-width="2"/></g></g></g></g></g><g transform="translate(0,0) matrix(1,0,0,1,565.5,162)"><g><g transform="translate(0,0) scale(2.4,1.7)"><g><path fill="#FFFFFF" stroke="none" stroke-dasharray="1.7976931348623157e+308" d="M 0 0 L 100 0 Q 100 0 100 0 L 100 100 Q 100 100 100 100 L 0 100 Q 0 100 0 100 L 0 0 Q 0 0 0 0 Z"/><g transform="scale(0.4166666666666667,0.5882352941176471)"><path fill="none" stroke="none" stroke-dasharray="1.7976931348623157e+308" d="M 0 0 L 240 0 Q 240 0 240 0 L 240 170 Q 240 170 240 170 L 0 170 Q 0 170 0 170 L 0 0 Q 0 0 0 0 Z"/><path fill="none" stroke="#333333" stroke-dasharray="1.7976931348623157e+308" d="M 0 0 L 240 0 Q 240 0 240 0 L 240 170 Q 240 170 240 170 L 0 170 Q 0 170 0 170 L 0 0 Q 0 0 0 0 Z" stroke-miterlimit="10" stroke-width="2"/></g></g></g></g></g><g transform="translate(0,0) matrix(1,0,0,1,585.5,179.5)"><g><g transform="translate(0,0) scale(1,0.75)"><g><path fill="#FFFFFF" stroke="none" stroke-dasharray="1.7976931348623157e+308" d="M 100 50 A 50 50 0 1 0 99.99997500000208 50.04999999166668 Z"/><g transform="scale(1,1.3333333333333333)"><path fill="none" stroke="#333333" stroke-dasharray="1.7976931348623157e+308" d="M 50 0 C 77.614235 0 100 16.78932375 100 37.5 C 100 58.21067625 77.614235 75 50 75 C 22.385765000000003 75 0 58.21067625 0 37.5 C 0 16.78932375 22.385765000000003 0 50 0 Z" stroke-miterlimit="10" stroke-width="2"/></g></g></g></g></g><g transform="matrix(1,0,0,1,596,197)"><g><g><rect fill="rgb(0,0,0)" stroke="none" x="0" y="0" width="81" height="41" fill-opacity="0"/></g></g><g><g><rect fill="rgb(0,0,0)" stroke="none" x="0" y="0" width="81" height="41" fill-opacity="0"/></g></g><g><g><rect fill="rgb(0,0,0)" stroke="none" x="3.139204502105713" y="0" width="75" height="41" fill-opacity="0"/></g><text fill="rgb(0, 0, 0)" stroke="none" font-family="Arial" font-size="12px" font-style="normal" font-weight="normal" text-decoration="" line-height="14px" x="16.15056800842285" y="12">Template</text><text fill="rgb(0, 0, 0)" stroke="none" font-family="Arial" font-size="12px" font-style="normal" font-weight="normal" text-decoration="" line-height="14px" x="2.7272725105285645" y="25.63636302947998">Based</text><text fill="rgb(0, 0, 0)" stroke="none" font-family="Arial" font-size="12px" font-style="normal" font-weight="normal" text-decoration="" line-height="14px" x="40.909088134765625" y="25.63636302947998">French</text><text fill="rgb(0, 0, 0)" stroke="none" font-family="Arial" font-size="12px" font-style="normal" font-weight="normal" text-decoration="" line-height="14px" x="8.039772033691406" y="39.27272605895996">Translations</text></g></g><g transform="translate(0,0) matrix(1,0,0,1,695.5,247)"><g><g transform="translate(0,0) scale(1,0.75)"><g><path fill="#FFFFFF" stroke="none" stroke-dasharray="1.7976931348623157e+308" d="M 100 50 A 50 50 0 1 0 99.99997500000208 50.04999999166668 Z"/><g transform="scale(1,1.3333333333333333)"><path fill="none" stroke="#333333" stroke-dasharray="1.7976931348623157e+308" d="M 50 0 C 77.614235 0 100 16.78932375 100 37.5 C 100 58.21067625 77.614235 75 50 75 C 22.385765000000003 75 0 58.21067625 0 37.5 C 0 16.78932375 22.385765000000003 0 50 0 Z" stroke-miterlimit="10" stroke-width="2"/></g></g></g></g></g><g transform="matrix(1,0,0,1,706,264)"><g><g><rect fill="rgb(0,0,0)" stroke="none" x="0" y="0" width="81" height="41" fill-opacity="0"/></g></g><g><g><rect fill="rgb(0,0,0)" stroke="none" x="0" y="0" width="81" height="41" fill-opacity="0"/></g></g><g><g><rect fill="rgb(0,0,0)" stroke="none" x="3.139204502105713" y="0" width="75" height="41" fill-opacity="0"/></g></g><g><g><rect fill="rgb(0,0,0)" stroke="none" x="3.139204502105713" y="0" width="75" height="41" fill-opacity="0"/></g><text fill="rgb(0, 0, 0)" stroke="none" font-family="Arial" font-size="12px" font-style="normal" font-weight="normal" text-decoration="" line-height="14px" x="14.488636016845703" y="12">Controller</text><text fill="rgb(0, 0, 0)" stroke="none" font-family="Arial" font-size="12px" font-style="normal" font-weight="normal" text-decoration="" line-height="14px" x="2.7272725105285645" y="25.63636302947998">Based</text><text fill="rgb(0, 0, 0)" stroke="none" font-family="Arial" font-size="12px" font-style="normal" font-weight="normal" text-decoration="" line-height="14px" x="40.909088134765625" y="25.63636302947998">French</text><text fill="rgb(0, 0, 0)" stroke="none" font-family="Arial" font-size="12px" font-style="normal" font-weight="normal" text-decoration="" line-height="14px" x="11.036931037902832" y="39.27272605895996">Translation</text></g></g><g transform="matrix(1,0,0,1,618,345)"><g><g><rect fill="rgb(0,0,0)" stroke="none" x="0" y="0" width="147" height="14" fill-opacity="0"/></g></g><g><g><rect fill="rgb(0,0,0)" stroke="none" x="0" y="0" width="147" height="14" fill-opacity="0"/></g></g><g><g><rect fill="rgb(0,0,0)" stroke="none" x="33.4801139831543" y="0" width="80" height="14" fill-opacity="0"/></g><text fill="rgb(0, 0, 0)" stroke="none" font-family="Arial" font-size="12px" font-style="normal" font-weight="normal" text-decoration="" line-height="14px" x="33.6363639831543" y="12">messages</text><text fill="rgb(0, 0, 0)" stroke="none" font-family="Arial" font-size="12px" font-style="normal" font-weight="normal" text-decoration="" line-height="14px" x="88.18181610107422" y="12">.</text><text fill="rgb(0, 0, 0)" stroke="none" font-family="Arial" font-size="12px" font-style="normal" font-weight="normal" text-decoration="" line-height="14px" x="91.81817626953125" y="12">fr</text><text fill="rgb(0, 0, 0)" stroke="none" font-family="Arial" font-size="12px" font-style="normal" font-weight="normal" text-decoration="" line-height="14px" x="98.18181610107422" y="12">.</text><text fill="rgb(0, 0, 0)" stroke="none" font-family="Arial" font-size="12px" font-style="normal" font-weight="normal" text-decoration="" line-height="14px" x="101.81817626953125" y="12">xlf</text></g></g></g></svg>