<svg width="180" height="150" xmlns="http://www.w3.org/2000/svg">
 <!-- Created with Method Draw - http://github.com/duopixel/Method-Draw/ -->
 <g>
  <title>background</title>
  <rect fill="none" id="canvas_background" height="152" width="182" y="-1" x="-1"/>
  <g display="none" overflow="visible" y="0" x="0" height="100%" width="100%" id="canvasGrid">
   <rect fill="url(#gridpattern)" stroke-width="0" y="0" x="0" height="100%" width="100%"/>
  </g>
 </g>
 <g>
  <title>Layer 1</title>
  <g transform="rotate(18.28241729736328 84.00000762939453,77) " stroke="null" id="svg_11">
   <path stroke="#000" id="svg_3" d="m43.804227,45.112877c0,0 -17.473446,8.626836 -26.199195,4.320524c-8.725749,-4.306312 -7.098675,8.182359 -3.356154,9.055553c3.742521,0.873194 27.011184,12.356692 31.589191,2.234762c4.578007,-10.12193 -2.033842,-15.610839 -2.033842,-15.610839z" stroke-opacity="null" stroke-width="1.5" fill="#FFB27C"/>
   <path stroke="#000" id="svg_4" d="m88.745362,132.820745c80.58486,-5.559716 67.644417,-74.543956 66.727794,-86.348262c-16.19539,47.590313 -39.360116,5.378325 -87.31245,11.820666c-30.666412,2.381297 -39.542615,19.585018 -37.905646,40.66595c1.637072,21.082255 27.823886,36.242952 58.490304,33.861654c0,0 -0.000001,-0.000009 -0.000001,-0.000009z" stroke-opacity="null" stroke-width="1.5" fill="#ffffff"/>
   <ellipse stroke="#000" ry="28.112089" rx="28.112089" id="svg_2" cy="49.045139" cx="59.296203" stroke-width="1.5" fill="#ffffff"/>
   <path stroke="#000" id="svg_8" d="m65.879635,98.356809c1.873709,9.624605 11.201713,15.907218 20.833847,14.032043c9.634452,-1.875626 38.747226,-25.631232 38.747226,-25.631232s-35.898297,-11.09931 -45.532749,-9.223684c-9.632134,1.875175 -15.922485,11.195945 -14.048324,20.822873z" stroke-opacity="null" stroke-width="1.5" fill="#FFB27C"/>
   <ellipse stroke="#000" ry="7.421983" rx="7.421983" id="svg_5" cy="47.244993" cx="46.250239" fill-opacity="null" stroke-opacity="null" stroke-width="1.5" fill="none"/>
   <ellipse stroke="#000" ry="3.598537" rx="3.598537" id="svg_6" cy="48.369558" cx="44.2262" stroke-opacity="null" stroke-width="1.5" fill="#000000"/>
  </g>
 </g>
</svg>